<?xml version="1.0" encoding="UTF-8" standalone="no"?>
<!DOCTYPE svg PUBLIC "-//W3C//DTD SVG 1.1//EN" "http://www.w3.org/Graphics/SVG/1.1/DTD/svg11.dtd">
<svg width="100%" height="100%" viewBox="0 0 1476 1476" version="1.1" xmlns="http://www.w3.org/2000/svg" xmlns:xlink="http://www.w3.org/1999/xlink" xml:space="preserve" xmlns:serif="http://www.serif.com/" style="fill-rule:evenodd;clip-rule:evenodd;stroke-linecap:round;stroke-linejoin:round;stroke-miterlimit:10;">
    <g transform="matrix(0.420504,0,0,0.419729,-7.793041,-24.199188)">
        <g transform="matrix(1.347332,0,0,1.347332,-616.247639,-631.681938)">
            <g>
                <g>
                    <g transform="matrix(-4.166667,0,0,4.166667,3004.920833,-1455.454167)">
                        <path d="M301.247,524.116L357.143,524.116L419.934,610.798L360.591,692.313L321.688,692.313" style="fill:none;fill-rule:nonzero;stroke:black;stroke-width:1.65px;"/>
                    </g>
                    <g transform="matrix(4.166667,0,0,4.166667,0,129.833333)">
                        <path d="M493.064,311.844L544.283,440.881L426.829,524.116L309.374,440.881L360.59,311.844L493.064,311.844Z" style="fill:none;fill-rule:nonzero;stroke:black;stroke-width:1.65px;stroke-linecap:butt;"/>
                    </g>
                    <g transform="matrix(4.166667,0,0,4.166667,0,1183.608333)">
                        <path d="M426.829,271.21L309.374,187.975L218.019,213.094L218.019,310.612L322.178,395.079L426.829,368.974L426.829,271.21Z" style="fill:none;fill-rule:nonzero;stroke:black;stroke-width:1.65px;stroke-linecap:butt;"/>
                    </g>
                    <g transform="matrix(4.166667,0,0,4.166667,0,-451.9625)">
                        <path d="M309.374,580.512L218.019,605.631L161.878,524.612L209.4,394.588L301.247,369.96L360.59,451.475L309.374,580.512Z" style="fill:none;fill-rule:nonzero;stroke:black;stroke-width:1.65px;stroke-linecap:butt;"/>
                    </g>
                    <g transform="matrix(4.166667,0,0,4.166667,0,-2306.233333)">
                        <path d="M489.69,728.296L364.052,728.296L349.096,702.385C355.43,700.697 361.815,699.215 368.248,697.95C374.678,696.681 381.151,695.628 387.65,694.788C394.153,693.948 400.678,693.325 407.221,692.917C413.764,692.51 420.319,692.32 426.873,692.345C433.405,692.371 439.937,692.613 446.458,693.068C452.976,693.526 459.479,694.198 465.952,695.082C472.426,695.966 478.87,697.066 485.27,698.375C491.674,699.685 498.03,701.207 504.331,702.935L489.69,728.296" style="fill:none;fill-rule:nonzero;stroke:black;stroke-width:1.65px;"/>
                    </g>
                    <g transform="matrix(4.166667,0,0,4.166667,0,-1800.141667)">
                        <path d="M364.052,606.834L349.096,580.923C333.511,585.082 318.291,590.503 303.583,597.132C288.879,603.76 274.737,611.576 261.298,620.501C247.863,629.425 235.173,639.428 223.359,650.413C211.546,661.395 200.649,673.324 190.768,686.077L209.33,718.231L301.232,693.509L364.052,606.834" style="fill:none;fill-rule:nonzero;stroke:black;stroke-width:1.65px;"/>
                    </g>
                    <g transform="matrix(4.166667,0,0,4.166667,0,-737.670833)">
                        <path d="M209.33,463.238L190.768,431.084C180.77,443.996 171.85,457.711 164.104,472.086C156.358,486.461 149.807,501.452 144.522,516.905C139.237,532.358 135.236,548.219 132.558,564.329C129.881,580.443 128.535,596.743 128.535,613.077L161.925,593.248L209.33,463.238" style="fill:none;fill-rule:nonzero;stroke:black;stroke-width:1.65px;"/>
                    </g>
                    <g transform="matrix(4.166667,0,0,4.166667,0,630.475)">
                        <path d="M161.925,264.893L128.535,284.722C128.535,299.423 129.624,314.106 131.799,328.65C133.97,343.194 137.22,357.554 141.518,371.614C145.817,385.677 151.153,399.399 157.484,412.67C163.814,425.941 171.12,438.724 179.343,450.913L218.056,443.481L218.056,345.754L161.925,264.893" style="fill:none;fill-rule:nonzero;stroke:black;stroke-width:1.65px;"/>
                    </g>
                    <g transform="matrix(4.166667,0,0,4.166667,0,1862.558333)">
                        <path d="M218.056,147.781L179.343,155.213C188.63,168.986 199.061,181.956 210.519,193.987C221.977,206.018 234.421,217.066 247.724,227.018C261.03,236.969 275.144,245.783 289.921,253.376C304.698,260.965 320.088,267.304 335.925,272.325L322.175,232.127L218.056,147.781" style="fill:none;fill-rule:nonzero;stroke:black;stroke-width:1.65px;"/>
                    </g>
                    <g transform="matrix(4.166667,0,0,4.166667,0,2162.908333)">
                        <path d="M426.873,133.868L531.571,160.043L518.111,199.39C510.76,201.796 503.319,203.913 495.804,205.736C488.288,207.562 480.704,209.092 473.068,210.325C465.431,211.561 457.751,212.492 450.045,213.127C442.336,213.761 434.604,214.095 426.873,214.125C419.174,214.154 411.476,213.886 403.799,213.318C396.119,212.749 388.468,211.883 380.858,210.724C373.247,209.562 365.685,208.105 358.188,206.356C350.687,204.606 343.264,202.567 335.925,200.241L322.175,160.043L426.873,133.868" style="fill:none;fill-rule:nonzero;stroke:black;stroke-width:1.65px;"/>
                    </g>
                    <g transform="matrix(4.166667,0,0,4.166667,0,-1455.866667)">
                        <path d="M419.893,524.208L489.69,524.208L552.51,610.883L493.181,692.32L399.534,692.32" style="fill:none;fill-rule:nonzero;stroke:black;stroke-width:1.65px;"/>
                    </g>
                    <g transform="matrix(4.166667,0,0,4.166667,0,1183.608333)">
                        <path d="M426.829,271.21L544.283,187.975L635.635,213.094L635.635,310.612L531.476,395.079L426.829,368.974L426.829,271.21Z" style="fill:none;fill-rule:nonzero;stroke:black;stroke-width:1.65px;stroke-linecap:butt;"/>
                    </g>
                    <g transform="matrix(4.166667,0,0,4.166667,0,-451.9625)">
                        <path d="M544.283,580.512L635.635,605.631L691.776,524.612L644.5,394.588L552.407,369.96L493.064,451.475L544.283,580.512Z" style="fill:none;fill-rule:nonzero;stroke:black;stroke-width:1.65px;stroke-linecap:butt;"/>
                    </g>
                    <g transform="matrix(4.166667,0,0,4.166667,0,-1797.85)">
                        <path d="M644.412,717.681L661.965,687.273C652.18,674.443 641.36,662.426 629.623,651.352C617.883,640.275 605.263,630.173 591.883,621.146C578.507,612.123 564.412,604.2 549.748,597.466C535.085,590.727 519.893,585.196 504.331,580.923L489.69,606.284L552.51,692.959L644.412,717.681" style="fill:none;fill-rule:nonzero;stroke:black;stroke-width:1.65px;"/>
                    </g>
                    <g transform="matrix(4.166667,0,0,4.166667,0,-736.220833)">
                        <path d="M691.817,592.9L722.856,611.331C722.783,595.298 721.408,579.302 718.752,563.493C716.097,547.684 712.169,532.113 707.001,516.939C701.833,501.764 695.448,487.03 687.907,472.886C680.362,458.742 671.688,445.229 661.965,432.482L644.412,462.89L691.817,592.9" style="fill:none;fill-rule:nonzero;stroke:black;stroke-width:1.65px;"/>
                    </g>
                    <g transform="matrix(4.166667,0,0,4.166667,0,628.808333)">
                        <path d="M635.686,443.881L672.323,450.913C680.564,438.647 687.885,425.783 694.215,412.428C700.546,399.073 705.871,385.263 710.148,371.115C714.424,356.967 717.641,342.519 719.768,327.895C721.892,313.267 722.926,298.503 722.856,283.724L691.817,265.293L635.686,346.154L635.686,443.881" style="fill:none;fill-rule:nonzero;stroke:black;stroke-width:1.65px;"/>
                    </g>
                    <g transform="matrix(4.166667,0,0,4.166667,0,1859.0125)">
                        <path d="M531.571,232.978L518.111,272.325C533.717,267.219 548.875,260.826 563.425,253.215C577.978,245.604 591.872,236.797 604.969,226.889C618.066,216.982 630.32,206.007 641.602,194.075C652.884,182.143 663.161,169.294 672.323,155.664L635.686,148.632L531.571,232.978" style="fill:none;fill-rule:nonzero;stroke:black;stroke-width:1.65px;"/>
                    </g>
                </g>
                <g transform="matrix(4.166667,0,0,4.166667,0,76.020833)">
                    <path d="M398.921,531.437C402.27,525.433 406.862,517.095 412.69,506.425C428.105,500.707 450.064,487.857 478.565,467.889C493.882,449.079 504.375,438.948 510.045,437.492C515.716,436.039 525.024,437.518 537.964,441.93C550.907,446.339 566.686,448.544 585.299,448.544C599.743,452.615 606.964,459.889 606.964,470.357L627.324,466.286L641.345,458.19C636.328,447.48 632.286,440.07 629.213,435.966C624.173,429.228 616.731,424.988 606.891,423.242C597.054,421.496 580.693,418.939 557.817,415.572C534.938,412.205 521.29,409.248 516.882,406.702C512.47,404.153 509.224,402.88 507.137,402.88C505.054,402.88 499.358,404.117 490.045,406.589C480.737,409.061 475.092,412.017 473.108,415.454C471.124,418.891 462.739,424.878 447.955,433.413C433.17,441.948 422.336,447.285 415.455,449.417C411.894,450.521 408.45,451.423 405.123,452.124C404.991,438.647 399.6,426.022 388.949,414.244C385.875,410.451 382.585,406.31 379.075,401.82C366.033,385.116 364.779,362.613 375.32,334.307C381.973,338.389 386.704,340.652 389.514,341.104C394.956,341.977 400.839,341.412 407.166,339.409C413.493,337.41 419.435,336.519 424.995,336.742C430.559,336.966 436.904,337.839 444.027,339.365C451.153,340.891 457.186,343.62 462.13,347.545C467.078,351.473 470.54,352.86 472.528,351.715C474.516,350.567 475.51,349.111 475.51,347.35C475.51,345.59 477.278,344.709 480.817,344.709C484.357,344.709 486.513,344.32 487.291,343.547C488.065,342.773 488.076,340.407 487.317,336.456C489.11,336.988 490.614,337.025 491.831,336.566C494.509,335.558 496.405,333.492 497.513,330.371C498.62,327.25 500.036,325.298 501.76,324.524C503.484,323.75 504.907,321.81 506.025,318.707L505.875,317.489C505.978,317.929 506.025,318.333 506.025,318.707C506.605,317.104 506.337,314.929 505.219,312.189C504.181,309.632 502.398,306.577 499.882,303.03C494.667,295.683 487.764,288.691 479.174,282.059C470.584,275.428 461.375,268.884 451.545,262.425C441.716,255.969 435.356,251.296 432.47,248.405C429.58,245.519 425.538,240.681 420.341,233.895C415.144,227.105 409.745,221.244 404.144,216.296C401.577,214.032 398.334,211.997 394.421,210.188C396.13,206.311 396.985,195.113 396.985,176.597C394.615,176.597 389.073,183.287 380.359,196.664C383.205,186.86 384.628,177.407 384.628,168.307C371.916,177.525 364.082,189.189 361.115,203.307C325.853,201.011 289.048,211.237 250.698,233.986C269.03,229.394 288.322,227.083 308.575,227.058C264.562,234.911 228.142,256.908 199.31,293.045C232.811,271.371 258.756,259.398 277.135,257.121C230.526,274.889 197.979,305.656 179.494,349.415C199.695,328.13 220.814,312.093 242.846,301.306C199.666,334.703 177.557,367.257 176.523,398.963C188.648,378.092 203.612,360.918 221.412,347.442C199.64,377.226 186.943,411.218 183.323,449.417C191.692,431.968 199.211,419.02 205.875,410.576C200.003,442.246 197.685,469.173 198.929,491.364C198.984,492.347 199.043,493.319 199.112,494.28C200.737,517.018 188.549,537.581 162.553,555.973C169.481,569.163 177.392,581.81 186.217,593.816C195.045,605.821 204.76,617.144 215.287,627.69C225.809,638.235 237.113,647.974 249.096,656.825C261.082,665.676 273.713,673.613 286.891,680.568C319.886,660.757 344.834,637.854 361.738,611.859C377.285,611.818 390.515,609.419 401.423,604.662C412.426,599.864 426.825,589.649 444.628,574.019C462.428,558.39 473.739,549.333 478.565,546.854C494.271,546.854 502.849,549.81 504.302,555.723C504.302,589.561 503.741,608.733 502.615,613.241C502.416,614.041 502.046,614.936 501.503,615.93L516.629,631.057L521.951,635.418C525.868,628.632 527.826,622.621 527.826,617.386C530.757,583.354 531.472,560.04 529.968,547.433C528.464,534.83 526.187,527.003 523.135,523.951C520.08,520.895 515.231,518.471 508.593,516.677C501.951,514.883 493.783,515.199 484.089,517.623C465.38,524.02 449.528,527.923 436.541,529.332C423.55,530.737 411.043,531.437 399.02,531.437L398.921,531.437Z" style="fill-rule:nonzero;"/>
                </g>
                <g transform="matrix(4.166667,0,0,4.166667,0,-1849.354167)">
                    <path d="M380.359,658.754C389.073,645.377 394.615,638.687 396.985,638.687C396.985,657.203 396.13,668.401 394.421,672.278" style="fill:none;fill-rule:nonzero;stroke:rgb(255,242,0);stroke-width:1.65px;"/>
                </g>
                <g transform="matrix(4.166667,0,0,4.166667,0,-306.858333)">
                    <path d="M162.553,647.864C188.549,629.472 200.737,608.909 199.112,586.171C197.487,563.437 199.743,535.534 205.875,502.467C199.211,510.911 191.692,523.859 183.323,541.308C186.943,503.109 199.64,469.117 221.412,439.333C203.612,452.809 188.648,469.983 176.523,490.854C177.557,459.148 199.666,426.594 242.846,393.197C220.814,403.984 199.695,420.021 179.494,441.306C197.979,397.547 230.526,366.78 277.135,349.012C258.756,351.289 232.811,363.262 199.31,384.936C228.142,348.799 264.562,326.802 308.575,318.949C288.322,318.974 269.03,321.285 250.698,325.877C289.048,303.128 325.853,292.902 361.115,295.198" style="fill:none;fill-rule:nonzero;stroke:rgb(255,242,0);stroke-width:1.65px;"/>
                </g>
                <g transform="matrix(4.166667,0,0,4.166667,0,-296.558333)">
                    <path d="M199.145,593.372C207.533,527.626 235.771,478.372 283.854,445.617C258.863,451.434 236.581,464.984 217.011,486.262C236.757,449.244 261.749,423.238 291.997,408.243C270.574,411.119 251.905,417.391 235.998,427.06C247.951,404.975 273.985,386.147 314.098,370.576C294.887,372.168 275.969,376.709 257.348,384.199C273.834,368.196 287.757,357.489 299.108,352.078C310.46,346.668 322.065,344.922 333.919,346.844C345.244,348.678 356.644,351.671 368.116,355.823C368.655,356.018 369.195,356.216 369.734,356.418C381.756,360.882 396.259,368.885 408.446,386.088" style="fill:none;fill-rule:nonzero;stroke:rgb(255,242,0);stroke-width:1.65px;"/>
                </g>
                <g transform="matrix(4.166667,0,0,4.166667,0,-1839.020833)">
                    <path d="M344.199,680.568C351.399,678.374 356.585,677.013 359.761,676.489C359.761,656.128 368.05,639.937 384.628,627.917C384.628,643.04 380.7,659.135 372.848,676.199" style="fill:none;fill-rule:nonzero;stroke:rgb(255,242,0);stroke-width:1.65px;"/>
                </g>
                <g transform="matrix(1.483759,3.893529,3.893529,-1.483759,-1299.588887,566.163001)">
                    <path d="M353.743,534.894C347.588,550.478 344.634,562.381 344.884,570.608C345.132,578.83 348.085,585.735 353.743,591.319C359.399,596.903 372.746,605.959 393.785,618.481C398.507,626.184 406.476,633.541 417.697,640.553" style="fill:none;fill-rule:nonzero;stroke:rgb(255,242,0);stroke-width:1.65px;"/>
                </g>
                <g transform="matrix(4.166667,0,0,4.166667,0,-1346.729167)">
                    <path d="M406.264,606.823C389.88,605.429 379.303,597.656 374.527,583.512C392.041,587.573 402.618,595.345 406.264,606.823" style="fill-rule:nonzero;stroke:rgb(255,242,0);stroke-width:1.65px;"/>
                </g>
                <g transform="matrix(4.166667,0,0,4.166667,0,-1101.079167)">
                    <path d="M456.46,597.08C466.447,605.183 474.168,611.125 479.625,614.907C485.083,618.689 489.154,620.079 491.831,619.07C494.509,618.062 496.405,615.996 497.513,612.875C498.62,609.754 500.036,607.802 501.76,607.028C503.484,606.254 504.907,604.314 506.025,601.211M441.445,544.896C438.771,542.97 436.291,541.4 434.01,540.189C428.718,537.387 423.392,534.049 418.041,530.176C412.69,526.302 407.647,520.012 402.919,511.3L402.915,511.3" style="fill:none;fill-rule:nonzero;stroke:rgb(255,242,0);stroke-width:1.65px;"/>
                </g>
                <g transform="matrix(4.166667,0,0,4.166667,0,-750.245833)">
                    <path d="M503.964,521.001C497.461,520.202 493.056,520.162 490.75,520.88C488.443,521.596 486.543,521.955 485.05,521.955C483.557,521.955 483.15,522.546 483.836,523.73C484.518,524.912 486.011,525.755 488.314,526.261C490.617,526.764 493.904,527.017 498.18,527.017L499.464,524.791L500.986,523.272L502.277,522.524L503.964,521.001" style="fill:none;fill-rule:nonzero;stroke:rgb(255,242,0);stroke-width:1.65px;"/>
                </g>
                <g transform="matrix(4.166667,0,0,4.166667,0,-665.3)">
                    <path d="M351.615,496.015C371.443,510.478 384.074,518.148 389.514,519.021C394.956,519.894 400.839,519.329 407.166,517.326C413.489,515.327 419.435,514.436 424.995,514.659C430.559,514.883 436.904,515.756 444.027,517.282C451.153,518.812 457.186,521.537 462.13,525.462C467.078,529.39 470.54,530.777 472.528,529.632C474.516,528.484 475.51,527.028 475.51,525.267C475.51,523.507 477.278,522.626 480.817,522.626C484.357,522.626 486.513,522.237 487.291,521.464C488.065,520.69 488.076,518.324 487.317,514.373" style="fill:none;fill-rule:nonzero;stroke:rgb(255,242,0);stroke-width:1.65px;"/>
                </g>
                <g transform="matrix(2.435767,-3.380555,-3.380555,-2.435767,2544.06504,4148.258611)">
                    <path d="M406.643,532.011C421.496,542.726 437.561,542.724 454.833,532.011" style="fill:none;fill-rule:nonzero;stroke:rgb(255,242,0);stroke-width:1.66px;"/>
                </g>
                <g transform="matrix(4.166667,0,0,4.166667,0,-1273.3375)">
                    <path d="M377.142,530.168C389.598,536.441 398.188,543.931 402.919,552.642C407.647,561.354 412.69,567.644 418.041,571.518C423.392,575.391 428.718,578.729 434.01,581.531C439.303,584.334 445.637,589.066 453.013,595.723C460.392,602.377 468.435,608.22 477.139,613.245C485.846,618.274 492.836,623.743 498.118,629.663C503.403,635.58 506.036,639.875 506.025,642.553" style="fill:none;fill-rule:nonzero;stroke:rgb(255,242,0);stroke-width:1.65px;"/>
                </g>
                <g transform="matrix(-4.166653,0.010742,0.010742,4.166653,3217.663323,-191.001723)">
                    <path d="M397.945,397.368C402.47,408.195 404.658,418.985 404.513,429.732C404.369,440.483 402.178,449.993 397.945,458.268C393.707,466.543 391.131,471.663 383.44,479.918C375.751,488.175 368.867,501.083 368.814,514.614" style="fill:none;fill-rule:nonzero;stroke:rgb(255,242,0);stroke-width:1.65px;"/>
                </g>
                <g transform="matrix(4.166667,0,0,4.166667,0,1866.4125)">
                    <path d="M286.891,250.874C328.553,225.858 351.234,204.749 366.411,170.856C367.555,168.307 365.351,173.541 366.411,170.856" style="fill:none;fill-rule:nonzero;stroke:rgb(255,242,0);stroke-width:1.65px;"/>
                </g>
                <g transform="matrix(4.166667,0,0,4.166667,0,1417.916667)">
                    <path d="M361.324,289.804C377.051,289.804 390.42,287.405 401.423,282.607C412.426,277.809 426.825,267.594 444.628,251.964C462.428,236.335 473.739,227.278 478.565,224.799C494.271,224.799 502.849,227.755 504.302,233.668C504.302,267.506 503.741,286.678 502.615,291.186C501.489,295.694 494.927,303.331 482.926,314.089L487.207,321.51L505.758,333.992L509.539,331.81L521.951,313.363C525.868,306.577 527.826,300.566 527.826,295.331C530.757,261.299 531.472,237.985 529.968,225.378C528.464,212.775 526.187,204.948 523.135,201.896C520.08,198.84 515.231,196.416 508.593,194.622C501.951,192.828 493.783,193.144 484.089,195.568C465.38,201.965 449.528,205.868 436.541,207.277C423.55,208.682 411.043,209.382 399.02,209.382" style="fill:none;fill-rule:nonzero;stroke:rgb(255,242,0);stroke-width:1.65px;"/>
                </g>
                <g transform="matrix(4.166667,0,0,4.166667,0,424.695833)">
                    <path d="M315.991,283.347C332.275,296.666 344.192,311.422 351.733,327.62C359.277,343.822 367.053,355.072 375.074,361.373C383.088,367.675 390.104,370.51 396.112,369.879C402.123,369.249 408.571,367.869 415.455,365.735C422.336,363.603 433.17,358.266 447.955,349.731C462.739,341.196 471.124,335.209 473.108,331.772C475.092,328.335 480.737,325.379 490.045,322.907C499.358,320.435 505.054,319.198 507.137,319.198C509.224,319.198 512.47,320.471 516.882,323.02C521.29,325.566 534.938,328.523 557.817,331.89C580.693,335.257 597.054,337.814 606.891,339.56C616.731,341.306 624.173,345.546 629.213,352.284C634.256,359.022 641.503,373.874 651.776,398.402L648.607,404.311C629.337,410.129 619.324,413.001 617.289,413.001L611.765,409.81L606.964,386.675C606.964,376.207 599.743,368.933 585.299,364.862C566.686,364.862 550.907,362.657 537.964,358.248C525.024,353.836 515.716,352.357 510.045,353.81C504.375,355.266 493.882,365.397 478.565,384.207C450.064,404.175 428.105,417.025 412.69,422.743C403.902,438.857 402.494,441.241 398.742,447.737C394.993,454.233 385.989,464.511 373.097,471.22C363.381,476.274 340.311,481.846 301.595,480.331" style="fill:none;fill-rule:nonzero;stroke:rgb(255,242,0);stroke-width:1.65px;"/>
                </g>
                <g transform="matrix(3.870803,-1.542075,-1.542075,-3.870803,441.720614,3917.751713)">
                    <path d="M207.658,239.706C234.525,245.08 258.497,245.077 279.571,239.706" style="fill-rule:nonzero;stroke:rgb(255,242,0);stroke-width:1.66px;"/>
                </g>
                <g transform="matrix(4.166667,0,0,4.166667,0,-761.116667)">
                    <path d="M480.073,533.624L473.038,528.533L456.46,515.489C454.696,514.367 453.266,514.088 452.173,514.65C451.076,515.211 451.391,516.355 453.115,518.079C454.843,519.803 458.166,521.828 463.088,524.153C468.006,526.479 474.795,530.33 483.451,535.7L480.073,533.624" style="fill-rule:nonzero;stroke:rgb(255,242,0);stroke-width:1.65px;"/>
                </g>
                <g transform="matrix(4.166667,0,0,4.166667,0,-1279.891667)">
                    <path d="M440,586.993C437.535,585.602 433.647,583.369 428.344,580.287C423.036,577.203 418.367,573.769 414.337,569.977C410.302,566.188 406.495,560.931 402.915,554.215C398.188,545.504 389.598,538.014 377.142,531.741L377.722,530.168C389.734,532.922 398.543,536.77 404.144,541.715C409.745,546.663 415.144,552.524 420.341,559.314C425.538,566.1 429.58,570.938 432.47,573.824C435.356,576.715 441.716,581.388 451.545,587.844C461.375,594.303 470.584,600.847 479.174,607.478C487.764,614.11 494.667,621.102 499.882,628.449C505.098,635.799 507.144,641.023 506.025,644.126C506.036,641.448 503.403,637.153 498.118,631.236C492.836,625.316 485.846,619.847 477.139,614.818C468.435,609.793 460.392,603.95 453.013,597.296C447.478,592.462 443.143,589.028 440,586.993" style="fill-rule:nonzero;stroke:rgb(255,242,0);stroke-width:1.65px;"/>
                </g>
                <g transform="matrix(4.166667,0,0,4.166667,0,518.4)">
                    <path d="M640.744,352.482L627.357,360.262L607.691,364.579L612.209,386.161L618.169,390.222C619.911,390.222 631.035,386.855 647.507,381.459L650.141,375.807C646.711,366.919 643.491,358.849 640.744,352.482Z" style="fill-rule:nonzero;stroke:rgb(255,242,0);stroke-width:1.65px;"/>
                </g>
                <g transform="matrix(4.166667,0,0,4.166667,0,1841.558333)">
                    <path d="M520.502,211.099L516.629,207.328L501.745,192.828C499.233,197.45 493.218,203.851 483.344,212.705L487.379,219.818L504.837,232.318L509.734,229.82L520.502,211.099" style="fill-rule:nonzero;stroke:rgb(255,242,0);stroke-width:1.65px;"/>
                </g>
                <g transform="matrix(0,-4.166667,-4.166667,0,3569.777083,3590.04375)">
                    <path d="M425.619,134.044C589.778,134.044 722.85,267.053 722.85,431.128C722.85,595.202 589.778,728.212 425.619,728.212C261.461,728.212 128.388,595.202 128.388,431.128C128.388,267.053 261.461,134.044 425.619,134.044" style="fill:none;fill-rule:nonzero;stroke:black;stroke-width:1.65px;stroke-linecap:butt;"/>
                </g>
            </g>
        </g>
    </g>
</svg>
