<?xml version="1.0" encoding="UTF-8" standalone="no"?>
<!DOCTYPE svg PUBLIC "-//W3C//DTD SVG 1.1//EN" "http://www.w3.org/Graphics/SVG/1.1/DTD/svg11.dtd">
<svg width="100%" height="100%" viewBox="0 0 800 800" version="1.1" xmlns="http://www.w3.org/2000/svg" xmlns:xlink="http://www.w3.org/1999/xlink" xml:space="preserve" xmlns:serif="http://www.serif.com/" style="fill-rule:evenodd;clip-rule:evenodd;stroke-linecap:round;stroke-linejoin:round;stroke-miterlimit:1.5;">
    <g transform="matrix(0.457104,0,0,0.466531,64.714482,69.229836)">
        <ellipse cx="733.5" cy="709" rx="728.5" ry="706" style="fill:rgb(255,242,0);stroke:white;stroke-width:2.17px;"/>
    </g>
    <g transform="matrix(0.190774,0,0,0.190422,60.288716,51.711404)">
        <g>
            <g>
                <g>
                    <g transform="matrix(-4.166667,0,0,4.166667,3004.920833,-1455.454167)">
                        <path d="M301.247,524.116L357.143,524.116L419.934,610.798L360.591,692.313L321.688,692.313" style="fill:none;fill-rule:nonzero;stroke:black;stroke-width:4.91px;stroke-miterlimit:10;"/>
                    </g>
                    <g transform="matrix(4.166667,0,0,4.166667,0,129.833333)">
                        <path d="M493.064,311.844L544.283,440.881L426.829,524.116L309.374,440.881L360.59,311.844L493.064,311.844Z" style="fill:none;fill-rule:nonzero;stroke:black;stroke-width:4.91px;stroke-linecap:butt;stroke-miterlimit:10;"/>
                    </g>
                    <g transform="matrix(4.166667,0,0,4.166667,0,1183.608333)">
                        <path d="M426.829,271.21L309.374,187.975L218.019,213.094L218.019,310.612L322.178,395.079L426.829,368.974L426.829,271.21Z" style="fill:none;fill-rule:nonzero;stroke:black;stroke-width:4.91px;stroke-linecap:butt;stroke-miterlimit:10;"/>
                    </g>
                    <g transform="matrix(4.166667,0,0,4.166667,0,-451.9625)">
                        <path d="M309.374,580.512L218.019,605.631L161.878,524.612L209.4,394.588L301.247,369.96L360.59,451.475L309.374,580.512Z" style="fill:none;fill-rule:nonzero;stroke:black;stroke-width:4.91px;stroke-linecap:butt;stroke-miterlimit:10;"/>
                    </g>
                    <g transform="matrix(4.166667,0,0,4.166667,0,-2306.233333)">
                        <path d="M489.69,728.296L364.052,728.296L349.096,702.385C355.43,700.697 361.815,699.215 368.248,697.95C374.678,696.681 381.151,695.628 387.65,694.788C394.153,693.948 400.678,693.325 407.221,692.917C413.764,692.51 420.319,692.32 426.873,692.345C433.405,692.371 439.937,692.613 446.458,693.068C452.976,693.526 459.479,694.198 465.952,695.082C472.426,695.966 478.87,697.066 485.27,698.375C491.674,699.685 498.03,701.207 504.331,702.935L489.69,728.296" style="fill:none;fill-rule:nonzero;stroke:black;stroke-width:4.91px;stroke-miterlimit:10;"/>
                    </g>
                    <g transform="matrix(4.166667,0,0,4.166667,0,-1800.141667)">
                        <path d="M364.052,606.834L349.096,580.923C333.511,585.082 318.291,590.503 303.583,597.132C288.879,603.76 274.737,611.576 261.298,620.501C247.863,629.425 235.173,639.428 223.359,650.413C211.546,661.395 200.649,673.324 190.768,686.077L209.33,718.231L301.232,693.509L364.052,606.834" style="fill:none;fill-rule:nonzero;stroke:black;stroke-width:4.91px;stroke-miterlimit:10;"/>
                    </g>
                    <g transform="matrix(4.166667,0,0,4.166667,0,-737.670833)">
                        <path d="M209.33,463.238L190.768,431.084C180.77,443.996 171.85,457.711 164.104,472.086C156.358,486.461 149.807,501.452 144.522,516.905C139.237,532.358 135.236,548.219 132.558,564.329C129.881,580.443 128.535,596.743 128.535,613.077L161.925,593.248L209.33,463.238" style="fill:none;fill-rule:nonzero;stroke:black;stroke-width:4.91px;stroke-miterlimit:10;"/>
                    </g>
                    <g transform="matrix(4.166667,0,0,4.166667,0,630.475)">
                        <path d="M161.925,264.893L128.535,284.722C128.535,299.423 129.624,314.106 131.799,328.65C133.97,343.194 137.22,357.554 141.518,371.614C145.817,385.677 151.153,399.399 157.484,412.67C163.814,425.941 171.12,438.724 179.343,450.913L218.056,443.481L218.056,345.754L161.925,264.893" style="fill:none;fill-rule:nonzero;stroke:black;stroke-width:4.91px;stroke-miterlimit:10;"/>
                    </g>
                    <g transform="matrix(4.166667,0,0,4.166667,0,1862.558333)">
                        <path d="M218.056,147.781L179.343,155.213C188.63,168.986 199.061,181.956 210.519,193.987C221.977,206.018 234.421,217.066 247.724,227.018C261.03,236.969 275.144,245.783 289.921,253.376C304.698,260.965 320.088,267.304 335.925,272.325L322.175,232.127L218.056,147.781" style="fill:none;fill-rule:nonzero;stroke:black;stroke-width:4.91px;stroke-miterlimit:10;"/>
                    </g>
                    <g transform="matrix(4.166667,0,0,4.166667,0,2162.908333)">
                        <path d="M426.873,133.868L531.571,160.043L518.111,199.39C510.76,201.796 503.319,203.913 495.804,205.736C488.288,207.562 480.704,209.092 473.068,210.325C465.431,211.561 457.751,212.492 450.045,213.127C442.336,213.761 434.604,214.095 426.873,214.125C419.174,214.154 411.476,213.886 403.799,213.318C396.119,212.749 388.468,211.883 380.858,210.724C373.247,209.562 365.685,208.105 358.188,206.356C350.687,204.606 343.264,202.567 335.925,200.241L322.175,160.043L426.873,133.868" style="fill:none;fill-rule:nonzero;stroke:black;stroke-width:4.91px;stroke-miterlimit:10;"/>
                    </g>
                    <g transform="matrix(4.166667,0,0,4.166667,0,-1455.866667)">
                        <path d="M419.893,524.208L489.69,524.208L552.51,610.883L493.181,692.32L399.534,692.32" style="fill:none;fill-rule:nonzero;stroke:black;stroke-width:4.91px;stroke-miterlimit:10;"/>
                    </g>
                    <g transform="matrix(4.166667,0,0,4.166667,0,1183.608333)">
                        <path d="M426.829,271.21L544.283,187.975L635.635,213.094L635.635,310.612L531.476,395.079L426.829,368.974L426.829,271.21Z" style="fill:none;fill-rule:nonzero;stroke:black;stroke-width:4.91px;stroke-linecap:butt;stroke-miterlimit:10;"/>
                    </g>
                    <g transform="matrix(4.166667,0,0,4.166667,0,-451.9625)">
                        <path d="M544.283,580.512L635.635,605.631L691.776,524.612L644.5,394.588L552.407,369.96L493.064,451.475L544.283,580.512Z" style="fill:none;fill-rule:nonzero;stroke:black;stroke-width:4.91px;stroke-linecap:butt;stroke-miterlimit:10;"/>
                    </g>
                    <g transform="matrix(4.166667,0,0,4.166667,0,-1797.85)">
                        <path d="M644.412,717.681L661.965,687.273C652.18,674.443 641.36,662.426 629.623,651.352C617.883,640.275 605.263,630.173 591.883,621.146C578.507,612.123 564.412,604.2 549.748,597.466C535.085,590.727 519.893,585.196 504.331,580.923L489.69,606.284L552.51,692.959L644.412,717.681" style="fill:none;fill-rule:nonzero;stroke:black;stroke-width:4.91px;stroke-miterlimit:10;"/>
                    </g>
                    <g transform="matrix(4.166667,0,0,4.166667,0,-736.220833)">
                        <path d="M691.817,592.9L722.856,611.331C722.783,595.298 721.408,579.302 718.752,563.493C716.097,547.684 712.169,532.113 707.001,516.939C701.833,501.764 695.448,487.03 687.907,472.886C680.362,458.742 671.688,445.229 661.965,432.482L644.412,462.89L691.817,592.9" style="fill:none;fill-rule:nonzero;stroke:black;stroke-width:4.91px;stroke-miterlimit:10;"/>
                    </g>
                    <g transform="matrix(4.166667,0,0,4.166667,0,628.808333)">
                        <path d="M635.686,443.881L672.323,450.913C680.564,438.647 687.885,425.783 694.215,412.428C700.546,399.073 705.871,385.263 710.148,371.115C714.424,356.967 717.641,342.519 719.768,327.895C721.892,313.267 722.926,298.503 722.856,283.724L691.817,265.293L635.686,346.154L635.686,443.881" style="fill:none;fill-rule:nonzero;stroke:black;stroke-width:4.91px;stroke-miterlimit:10;"/>
                    </g>
                    <g transform="matrix(4.166667,0,0,4.166667,0,1859.0125)">
                        <path d="M531.571,232.978L518.111,272.325C533.717,267.219 548.875,260.826 563.425,253.215C577.978,245.604 591.872,236.797 604.969,226.889C618.066,216.982 630.32,206.007 641.602,194.075C652.884,182.143 663.161,169.294 672.323,155.664L635.686,148.632L531.571,232.978" style="fill:none;fill-rule:nonzero;stroke:black;stroke-width:4.91px;stroke-miterlimit:10;"/>
                    </g>
                </g>
                <g transform="matrix(4.166667,0,0,4.166667,0,76.020833)">
                    <path d="M398.921,531.437C402.27,525.433 406.862,517.095 412.69,506.425C428.105,500.707 450.064,487.857 478.565,467.889C493.882,449.079 504.375,438.948 510.045,437.492C515.716,436.039 525.024,437.518 537.964,441.93C550.907,446.339 566.686,448.544 585.299,448.544C599.743,452.615 606.964,459.889 606.964,470.357L627.324,466.286L641.345,458.19C636.328,447.48 632.286,440.07 629.213,435.966C624.173,429.228 616.731,424.988 606.891,423.242C597.054,421.496 580.693,418.939 557.817,415.572C534.938,412.205 521.29,409.248 516.882,406.702C512.47,404.153 509.224,402.88 507.137,402.88C505.054,402.88 499.358,404.117 490.045,406.589C480.737,409.061 475.092,412.017 473.108,415.454C471.124,418.891 462.739,424.878 447.955,433.413C433.17,441.948 422.336,447.285 415.455,449.417C411.894,450.521 408.45,451.423 405.123,452.124C404.991,438.647 399.6,426.022 388.949,414.244C385.875,410.451 382.585,406.31 379.075,401.82C366.033,385.116 364.779,362.613 375.32,334.307C381.973,338.389 386.704,340.652 389.514,341.104C394.956,341.977 400.839,341.412 407.166,339.409C413.493,337.41 419.435,336.519 424.995,336.742C430.559,336.966 436.904,337.839 444.027,339.365C451.153,340.891 457.186,343.62 462.13,347.545C467.078,351.473 470.54,352.86 472.528,351.715C474.516,350.567 475.51,349.111 475.51,347.35C475.51,345.59 477.278,344.709 480.817,344.709C484.357,344.709 486.513,344.32 487.291,343.547C488.065,342.773 488.076,340.407 487.317,336.456C489.11,336.988 490.614,337.025 491.831,336.566C494.509,335.558 496.405,333.492 497.513,330.371C498.62,327.25 500.036,325.298 501.76,324.524C503.484,323.75 504.907,321.81 506.025,318.707L505.875,317.489C505.978,317.929 506.025,318.333 506.025,318.707C506.605,317.104 506.337,314.929 505.219,312.189C504.181,309.632 502.398,306.577 499.882,303.03C494.667,295.683 487.764,288.691 479.174,282.059C470.584,275.428 461.375,268.884 451.545,262.425C441.716,255.969 435.356,251.296 432.47,248.405C429.58,245.519 425.538,240.681 420.341,233.895C415.144,227.105 409.745,221.244 404.144,216.296C401.577,214.032 398.334,211.997 394.421,210.188C396.13,206.311 396.985,195.113 396.985,176.597C394.615,176.597 389.073,183.287 380.359,196.664C383.205,186.86 384.628,177.407 384.628,168.307C371.916,177.525 364.082,189.189 361.115,203.307C325.853,201.011 289.048,211.237 250.698,233.986C269.03,229.394 288.322,227.083 308.575,227.058C264.562,234.911 228.142,256.908 199.31,293.045C232.811,271.371 258.756,259.398 277.135,257.121C230.526,274.889 197.979,305.656 179.494,349.415C199.695,328.13 220.814,312.093 242.846,301.306C199.666,334.703 177.557,367.257 176.523,398.963C188.648,378.092 203.612,360.918 221.412,347.442C199.64,377.226 186.943,411.218 183.323,449.417C191.692,431.968 199.211,419.02 205.875,410.576C200.003,442.246 197.685,469.173 198.929,491.364C198.984,492.347 199.043,493.319 199.112,494.28C200.737,517.018 188.549,537.581 162.553,555.973C169.481,569.163 177.392,581.81 186.217,593.816C195.045,605.821 204.76,617.144 215.287,627.69C225.809,638.235 237.113,647.974 249.096,656.825C261.082,665.676 273.713,673.613 286.891,680.568C319.886,660.757 344.834,637.854 361.738,611.859C377.285,611.818 390.515,609.419 401.423,604.662C412.426,599.864 426.825,589.649 444.628,574.019C462.428,558.39 473.739,549.333 478.565,546.854C494.271,546.854 502.849,549.81 504.302,555.723C504.302,589.561 503.741,608.733 502.615,613.241C502.416,614.041 502.046,614.936 501.503,615.93L516.629,631.057L521.951,635.418C525.868,628.632 527.826,622.621 527.826,617.386C530.757,583.354 531.472,560.04 529.968,547.433C528.464,534.83 526.187,527.003 523.135,523.951C520.08,520.895 515.231,518.471 508.593,516.677C501.951,514.883 493.783,515.199 484.089,517.623C465.38,524.02 449.528,527.923 436.541,529.332C423.55,530.737 411.043,531.437 399.02,531.437L398.921,531.437Z" style="fill-rule:nonzero;"/>
                </g>
                <g transform="matrix(4.166667,0,0,4.166667,0,-1849.354167)">
                    <path d="M380.359,658.754C389.073,645.377 394.615,638.687 396.985,638.687C396.985,657.203 396.13,668.401 394.421,672.278" style="fill:none;fill-rule:nonzero;stroke:rgb(255,242,0);stroke-width:4.91px;stroke-miterlimit:10;"/>
                </g>
                <g transform="matrix(4.166667,0,0,4.166667,0,-306.858333)">
                    <path d="M162.553,647.864C188.549,629.472 200.737,608.909 199.112,586.171C197.487,563.437 199.743,535.534 205.875,502.467C199.211,510.911 191.692,523.859 183.323,541.308C186.943,503.109 199.64,469.117 221.412,439.333C203.612,452.809 188.648,469.983 176.523,490.854C177.557,459.148 199.666,426.594 242.846,393.197C220.814,403.984 199.695,420.021 179.494,441.306C197.979,397.547 230.526,366.78 277.135,349.012C258.756,351.289 232.811,363.262 199.31,384.936C228.142,348.799 264.562,326.802 308.575,318.949C288.322,318.974 269.03,321.285 250.698,325.877C289.048,303.128 325.853,292.902 361.115,295.198" style="fill:none;fill-rule:nonzero;stroke:rgb(255,242,0);stroke-width:4.91px;stroke-miterlimit:10;"/>
                </g>
                <g transform="matrix(4.166667,0,0,4.166667,0,-296.558333)">
                    <path d="M199.145,593.372C207.533,527.626 235.771,478.372 283.854,445.617C258.863,451.434 236.581,464.984 217.011,486.262C236.757,449.244 261.749,423.238 291.997,408.243C270.574,411.119 251.905,417.391 235.998,427.06C247.951,404.975 273.985,386.147 314.098,370.576C294.887,372.168 275.969,376.709 257.348,384.199C273.834,368.196 287.757,357.489 299.108,352.078C310.46,346.668 322.065,344.922 333.919,346.844C345.244,348.678 356.644,351.671 368.116,355.823C368.655,356.018 369.195,356.216 369.734,356.418C381.756,360.882 396.259,368.885 408.446,386.088" style="fill:none;fill-rule:nonzero;stroke:rgb(255,242,0);stroke-width:4.91px;stroke-miterlimit:10;"/>
                </g>
                <g transform="matrix(4.166667,0,0,4.166667,0,-1839.020833)">
                    <path d="M344.199,680.568C351.399,678.374 356.585,677.013 359.761,676.489C359.761,656.128 368.05,639.937 384.628,627.917C384.628,643.04 380.7,659.135 372.848,676.199" style="fill:none;fill-rule:nonzero;stroke:rgb(255,242,0);stroke-width:4.91px;stroke-miterlimit:10;"/>
                </g>
                <g transform="matrix(1.483759,3.893529,3.893529,-1.483759,-1299.588887,566.163001)">
                    <path d="M353.743,534.894C347.588,550.478 344.634,562.381 344.884,570.608C345.132,578.83 348.085,585.735 353.743,591.319C359.399,596.903 372.746,605.959 393.785,618.481C398.507,626.184 406.476,633.541 417.697,640.553" style="fill:none;fill-rule:nonzero;stroke:rgb(255,242,0);stroke-width:4.91px;stroke-miterlimit:10;"/>
                </g>
                <g transform="matrix(4.166667,0,0,4.166667,0,-1346.729167)">
                    <path d="M406.264,606.823C389.88,605.429 379.303,597.656 374.527,583.512C392.041,587.573 402.618,595.345 406.264,606.823" style="fill-rule:nonzero;stroke:rgb(255,242,0);stroke-width:4.91px;stroke-miterlimit:10;"/>
                </g>
                <g transform="matrix(4.166667,0,0,4.166667,0,-1101.079167)">
                    <path d="M456.46,597.08C466.447,605.183 474.168,611.125 479.625,614.907C485.083,618.689 489.154,620.079 491.831,619.07C494.509,618.062 496.405,615.996 497.513,612.875C498.62,609.754 500.036,607.802 501.76,607.028C503.484,606.254 504.907,604.314 506.025,601.211M441.445,544.896C438.771,542.97 436.291,541.4 434.01,540.189C428.718,537.387 423.392,534.049 418.041,530.176C412.69,526.302 407.647,520.012 402.919,511.3L402.915,511.3" style="fill:none;fill-rule:nonzero;stroke:rgb(255,242,0);stroke-width:4.91px;stroke-miterlimit:10;"/>
                </g>
                <g transform="matrix(4.166667,0,0,4.166667,0,-750.245833)">
                    <path d="M503.964,521.001C497.461,520.202 493.056,520.162 490.75,520.88C488.443,521.596 486.543,521.955 485.05,521.955C483.557,521.955 483.15,522.546 483.836,523.73C484.518,524.912 486.011,525.755 488.314,526.261C490.617,526.764 493.904,527.017 498.18,527.017L499.464,524.791L500.986,523.272L502.277,522.524L503.964,521.001" style="fill:none;fill-rule:nonzero;stroke:rgb(255,242,0);stroke-width:4.91px;stroke-miterlimit:10;"/>
                </g>
                <g transform="matrix(4.166667,0,0,4.166667,0,-665.3)">
                    <path d="M351.615,496.015C371.443,510.478 384.074,518.148 389.514,519.021C394.956,519.894 400.839,519.329 407.166,517.326C413.489,515.327 419.435,514.436 424.995,514.659C430.559,514.883 436.904,515.756 444.027,517.282C451.153,518.812 457.186,521.537 462.13,525.462C467.078,529.39 470.54,530.777 472.528,529.632C474.516,528.484 475.51,527.028 475.51,525.267C475.51,523.507 477.278,522.626 480.817,522.626C484.357,522.626 486.513,522.237 487.291,521.464C488.065,520.69 488.076,518.324 487.317,514.373" style="fill:none;fill-rule:nonzero;stroke:rgb(255,242,0);stroke-width:4.91px;stroke-miterlimit:10;"/>
                </g>
                <g transform="matrix(2.435767,-3.380555,-3.380555,-2.435767,2544.06504,4148.258611)">
                    <path d="M406.643,532.011C421.496,542.726 437.561,542.724 454.833,532.011" style="fill:none;fill-rule:nonzero;stroke:rgb(255,242,0);stroke-width:4.92px;stroke-miterlimit:10;"/>
                </g>
                <g transform="matrix(4.166667,0,0,4.166667,0,-1273.3375)">
                    <path d="M377.142,530.168C389.598,536.441 398.188,543.931 402.919,552.642C407.647,561.354 412.69,567.644 418.041,571.518C423.392,575.391 428.718,578.729 434.01,581.531C439.303,584.334 445.637,589.066 453.013,595.723C460.392,602.377 468.435,608.22 477.139,613.245C485.846,618.274 492.836,623.743 498.118,629.663C503.403,635.58 506.036,639.875 506.025,642.553" style="fill:none;fill-rule:nonzero;stroke:rgb(255,242,0);stroke-width:4.91px;stroke-miterlimit:10;"/>
                </g>
                <g transform="matrix(-4.166653,0.010742,0.010742,4.166653,3217.663323,-191.001723)">
                    <path d="M397.945,397.368C402.47,408.195 404.658,418.985 404.513,429.732C404.369,440.483 402.178,449.993 397.945,458.268C393.707,466.543 391.131,471.663 383.44,479.918C375.751,488.175 368.867,501.083 368.814,514.614" style="fill:none;fill-rule:nonzero;stroke:rgb(255,242,0);stroke-width:4.91px;stroke-miterlimit:10;"/>
                </g>
                <g transform="matrix(4.166667,0,0,4.166667,0,1866.4125)">
                    <path d="M286.891,250.874C328.553,225.858 351.234,204.749 366.411,170.856C367.555,168.307 365.351,173.541 366.411,170.856" style="fill:none;fill-rule:nonzero;stroke:rgb(255,242,0);stroke-width:4.91px;stroke-miterlimit:10;"/>
                </g>
                <g transform="matrix(4.166667,0,0,4.166667,0,1417.916667)">
                    <path d="M361.324,289.804C377.051,289.804 390.42,287.405 401.423,282.607C412.426,277.809 426.825,267.594 444.628,251.964C462.428,236.335 473.739,227.278 478.565,224.799C494.271,224.799 502.849,227.755 504.302,233.668C504.302,267.506 503.741,286.678 502.615,291.186C501.489,295.694 494.927,303.331 482.926,314.089L487.207,321.51L505.758,333.992L509.539,331.81L521.951,313.363C525.868,306.577 527.826,300.566 527.826,295.331C530.757,261.299 531.472,237.985 529.968,225.378C528.464,212.775 526.187,204.948 523.135,201.896C520.08,198.84 515.231,196.416 508.593,194.622C501.951,192.828 493.783,193.144 484.089,195.568C465.38,201.965 449.528,205.868 436.541,207.277C423.55,208.682 411.043,209.382 399.02,209.382" style="fill:none;fill-rule:nonzero;stroke:rgb(255,242,0);stroke-width:4.91px;stroke-miterlimit:10;"/>
                </g>
                <g transform="matrix(4.166667,0,0,4.166667,0,424.695833)">
                    <path d="M315.991,283.347C332.275,296.666 344.192,311.422 351.733,327.62C359.277,343.822 367.053,355.072 375.074,361.373C383.088,367.675 390.104,370.51 396.112,369.879C402.123,369.249 408.571,367.869 415.455,365.735C422.336,363.603 433.17,358.266 447.955,349.731C462.739,341.196 471.124,335.209 473.108,331.772C475.092,328.335 480.737,325.379 490.045,322.907C499.358,320.435 505.054,319.198 507.137,319.198C509.224,319.198 512.47,320.471 516.882,323.02C521.29,325.566 534.938,328.523 557.817,331.89C580.693,335.257 597.054,337.814 606.891,339.56C616.731,341.306 624.173,345.546 629.213,352.284C634.256,359.022 641.503,373.874 651.776,398.402L648.607,404.311C629.337,410.129 619.324,413.001 617.289,413.001L611.765,409.81L606.964,386.675C606.964,376.207 599.743,368.933 585.299,364.862C566.686,364.862 550.907,362.657 537.964,358.248C525.024,353.836 515.716,352.357 510.045,353.81C504.375,355.266 493.882,365.397 478.565,384.207C450.064,404.175 428.105,417.025 412.69,422.743C403.902,438.857 402.494,441.241 398.742,447.737C394.993,454.233 385.989,464.511 373.097,471.22C363.381,476.274 340.311,481.846 301.595,480.331" style="fill:none;fill-rule:nonzero;stroke:rgb(255,242,0);stroke-width:4.91px;stroke-miterlimit:10;"/>
                </g>
                <g transform="matrix(3.870803,-1.542075,-1.542075,-3.870803,441.720614,3917.751713)">
                    <path d="M207.658,239.706C234.525,245.08 258.497,245.077 279.571,239.706" style="fill-rule:nonzero;stroke:rgb(255,242,0);stroke-width:4.92px;stroke-miterlimit:10;"/>
                </g>
                <g transform="matrix(4.166667,0,0,4.166667,0,-761.116667)">
                    <path d="M480.073,533.624L473.038,528.533L456.46,515.489C454.696,514.367 453.266,514.088 452.173,514.65C451.076,515.211 451.391,516.355 453.115,518.079C454.843,519.803 458.166,521.828 463.088,524.153C468.006,526.479 474.795,530.33 483.451,535.7L480.073,533.624" style="fill-rule:nonzero;stroke:rgb(255,242,0);stroke-width:4.91px;stroke-miterlimit:10;"/>
                </g>
                <g transform="matrix(4.166667,0,0,4.166667,0,-1279.891667)">
                    <path d="M440,586.993C437.535,585.602 433.647,583.369 428.344,580.287C423.036,577.203 418.367,573.769 414.337,569.977C410.302,566.188 406.495,560.931 402.915,554.215C398.188,545.504 389.598,538.014 377.142,531.741L377.722,530.168C389.734,532.922 398.543,536.77 404.144,541.715C409.745,546.663 415.144,552.524 420.341,559.314C425.538,566.1 429.58,570.938 432.47,573.824C435.356,576.715 441.716,581.388 451.545,587.844C461.375,594.303 470.584,600.847 479.174,607.478C487.764,614.11 494.667,621.102 499.882,628.449C505.098,635.799 507.144,641.023 506.025,644.126C506.036,641.448 503.403,637.153 498.118,631.236C492.836,625.316 485.846,619.847 477.139,614.818C468.435,609.793 460.392,603.95 453.013,597.296C447.478,592.462 443.143,589.028 440,586.993" style="fill-rule:nonzero;stroke:rgb(255,242,0);stroke-width:4.91px;stroke-miterlimit:10;"/>
                </g>
                <g transform="matrix(4.166667,0,0,4.166667,0,518.4)">
                    <path d="M640.744,352.482L627.357,360.262L607.691,364.579L612.209,386.161L618.169,390.222C619.911,390.222 631.035,386.855 647.507,381.459L650.141,375.807C646.711,366.919 643.491,358.849 640.744,352.482Z" style="fill-rule:nonzero;stroke:rgb(255,242,0);stroke-width:4.91px;stroke-miterlimit:10;"/>
                </g>
                <g transform="matrix(4.166667,0,0,4.166667,0,1841.558333)">
                    <path d="M520.502,211.099L516.629,207.328L501.745,192.828C499.233,197.45 493.218,203.851 483.344,212.705L487.379,219.818L504.837,232.318L509.734,229.82L520.502,211.099" style="fill-rule:nonzero;stroke:rgb(255,242,0);stroke-width:4.91px;stroke-miterlimit:10;"/>
                </g>
                <g transform="matrix(0,-4.166667,-4.166667,0,3569.777083,3590.04375)">
                    <path d="M425.619,134.044C589.778,134.044 722.85,267.053 722.85,431.128C722.85,595.202 589.778,728.212 425.619,728.212C261.461,728.212 128.388,595.202 128.388,431.128C128.388,267.053 261.461,134.044 425.619,134.044" style="fill:none;fill-rule:nonzero;stroke:black;stroke-width:4.91px;stroke-linecap:butt;stroke-miterlimit:10;"/>
                </g>
            </g>
            <g>
                <g transform="matrix(0.092467,-4.165641,4.16564,0.092499,0,0)">
                    <path d="M-416.278,54.341L-416.278,120.301L-436.349,120.301L-436.349,54.341L-459.825,54.341L-459.825,37.206L-392.803,37.206L-392.803,54.341L-416.278,54.341Z" style="fill-rule:nonzero;"/>
                </g>
                <g transform="matrix(1.029673,-4.037435,4.037351,1.030005,0,0)">
                    <path d="M-346.133,205.213L-346.137,122.118L-290.266,122.118L-290.265,139.136L-326.769,139.136L-326.768,154.746L-292.26,154.746L-292.259,170.825L-326.768,170.825L-326.767,188.078L-288.15,188.078L-288.15,205.213L-346.133,205.213Z" style="fill-rule:nonzero;"/>
                </g>
                <g transform="matrix(1.975753,-3.668448,3.66816,1.976289,0,0)">
                    <path d="M-160.235,266.553L-166.692,250.239L-198.852,250.239L-204.955,266.553L-226.786,266.553L-191.932,183.457L-172.448,183.457L-137.934,266.553L-160.235,266.553ZM-182.541,205.639L-193.102,234.16L-172.21,234.16L-182.541,205.639Z" style="fill-rule:nonzero;"/>
                </g>
                <g transform="matrix(3.006922,-2.88436,2.883837,3.007423,0,0)">
                    <path d="M33.364,294.431L33.828,235.614L33.476,235.614L11.88,294.431L-2.208,294.431L-23.228,235.614L-23.58,235.614L-23.106,294.431L-42.007,294.431L-42.014,211.312L-13.486,211.312L5.42,264.612L5.89,264.612L23.964,211.312L52.962,211.312L52.969,294.431L33.364,294.431Z" style="fill-rule:nonzero;"/>
                </g>
                <g transform="matrix(3.857887,-1.57411,1.573648,3.858075,0,0)">
                    <path d="M248.602,188.01C246.88,185.819 244.631,184.078 241.853,182.786C239.075,181.495 236.395,180.85 233.813,180.85C232.483,180.85 231.133,180.967 229.764,181.202C228.395,181.437 227.162,181.887 226.067,182.552C224.971,183.217 224.052,184.078 223.309,185.134C222.566,186.19 222.194,187.54 222.194,189.183C222.194,190.592 222.488,191.766 223.075,192.705C223.661,193.644 224.522,194.465 225.657,195.169C226.791,195.874 228.141,196.519 229.706,197.106C231.271,197.693 233.032,198.3 234.988,198.926C237.805,199.865 240.739,200.901 243.791,202.036C246.842,203.171 249.62,204.677 252.124,206.555C254.628,208.433 256.702,210.761 258.345,213.539C259.988,216.317 260.81,219.779 260.81,223.926C260.81,228.7 259.93,232.827 258.17,236.309C256.41,239.792 254.043,242.667 251.07,244.937C248.097,247.206 244.693,248.888 240.859,249.984C237.025,251.079 233.074,251.627 229.005,251.627C223.059,251.627 217.307,250.59 211.752,248.517C206.196,246.443 201.58,243.489 197.902,239.655L211.046,226.274C213.081,228.778 215.761,230.871 219.086,232.553C222.412,234.236 225.718,235.077 229.004,235.077C230.491,235.077 231.938,234.921 233.347,234.608C234.755,234.295 235.987,233.786 237.044,233.082C238.1,232.377 238.941,231.438 239.567,230.265C240.193,229.091 240.506,227.682 240.506,226.039C240.506,224.474 240.114,223.144 239.332,222.048C238.549,220.953 237.434,219.955 235.987,219.055C234.539,218.155 232.739,217.334 230.588,216.59C228.436,215.847 225.991,215.045 223.252,214.184C220.591,213.324 217.99,212.306 215.447,211.133C212.904,209.959 210.634,208.452 208.639,206.614C206.644,204.775 205.04,202.545 203.827,199.923C202.614,197.302 202.007,194.113 202.007,190.357C202.007,185.74 202.945,181.789 204.823,178.502C206.701,175.216 209.165,172.516 212.217,170.403C215.268,168.291 218.711,166.745 222.545,165.767C226.379,164.789 230.252,164.3 234.164,164.3C238.859,164.3 243.651,165.161 248.542,166.882C253.432,168.604 257.716,171.147 261.394,174.511L248.602,188.01Z" style="fill-rule:nonzero;"/>
                </g>
                <g transform="matrix(4.107774,-0.698073,0.697841,4.107813,0,0)">
                    <path d="M356.317,120.212L356.319,186.178L336.249,186.178L336.248,120.212L312.774,120.212L312.774,103.075L379.79,103.075L379.791,120.212L356.317,120.212Z" style="fill-rule:nonzero;"/>
                </g>
                <g transform="matrix(4.154623,0.31657,-0.316465,4.154631,0,0)">
                    <path d="M493.418,56.123C493.418,61.131 492.577,65.689 490.894,69.797C489.212,73.905 486.806,77.427 483.676,80.361C480.546,83.296 476.771,85.584 472.35,87.228C467.93,88.871 463.02,89.693 457.621,89.693C452.144,89.693 447.214,88.871 442.833,87.228C438.451,85.584 434.735,83.296 431.683,80.361C428.632,77.427 426.284,73.905 424.641,69.797C422.998,65.689 422.177,61.131 422.177,56.123L422.177,4.36L442.13,4.36L442.129,54.48C442.129,56.749 442.422,58.901 443.009,60.935C443.596,62.97 444.496,64.789 445.709,66.393C446.921,67.997 448.525,69.269 450.52,70.208C452.516,71.147 454.922,71.617 457.738,71.617C460.555,71.617 462.961,71.147 464.957,70.208C466.952,69.269 468.575,67.997 469.827,66.393C471.079,64.789 471.979,62.97 472.527,60.935C473.074,58.901 473.348,56.749 473.348,54.48L473.349,4.36L493.419,4.36L493.418,56.123Z" style="fill-rule:nonzero;"/>
                </g>
                <g transform="matrix(3.951561,1.321468,-1.321052,3.9517,0,0)">
                    <path d="M551.871,-102.445L551.867,-36.48L531.797,-36.48L531.801,-102.445L508.327,-102.445L508.328,-119.582L575.345,-119.582L575.344,-102.445L551.871,-102.445Z" style="fill-rule:nonzero;"/>
                </g>
                <g transform="matrix(3.573346,2.142967,-2.142419,3.573675,0,0)">
                    <path d="M598.893,-225.864L598.888,-159.9L578.818,-159.9L578.823,-225.864L555.349,-225.864L555.35,-243.001L622.368,-243.001L622.367,-225.864L598.893,-225.864Z" style="fill-rule:nonzero;"/>
                </g>
                <g transform="matrix(2.978866,2.913326,-2.912812,2.979369,0,0)">
                    <path d="M647.981,-305.777C643.912,-303.664 639.158,-301.943 633.72,-300.613C628.281,-299.283 622.354,-298.617 615.938,-298.617C609.286,-298.617 603.164,-299.674 597.569,-301.787C591.975,-303.899 587.163,-306.873 583.133,-310.707C579.104,-314.541 575.955,-319.138 573.686,-324.498C571.417,-329.858 570.283,-335.824 570.284,-342.397C570.284,-349.048 571.439,-355.073 573.748,-360.473C576.057,-365.872 579.246,-370.469 583.315,-374.264C587.384,-378.059 592.157,-380.974 597.635,-383.008C603.112,-385.042 609.02,-386.06 615.358,-386.06C621.931,-386.06 628.034,-385.062 633.668,-383.067C639.302,-381.071 643.879,-378.391 647.4,-375.027L634.722,-360.59C632.766,-362.859 630.184,-364.717 626.976,-366.165C623.768,-367.613 620.13,-368.336 616.061,-368.336C612.54,-368.336 609.292,-367.691 606.319,-366.4C603.345,-365.109 600.763,-363.309 598.572,-361.001C596.381,-358.692 594.679,-355.954 593.466,-352.785C592.252,-349.616 591.646,-346.153 591.645,-342.397C591.645,-338.563 592.192,-335.042 593.288,-331.834C594.383,-328.626 596.006,-325.867 598.158,-323.559C600.309,-321.251 602.97,-319.451 606.139,-318.16C609.308,-316.869 612.927,-316.223 616.995,-316.223C619.343,-316.223 621.573,-316.399 623.686,-316.751C625.798,-317.104 627.755,-317.671 629.554,-318.453L629.556,-333.594L613.711,-333.594L613.712,-349.792L647.984,-349.792L647.981,-305.777Z" style="fill-rule:nonzero;"/>
                </g>
                <g transform="matrix(2.047538,3.62887,-3.628564,2.048081,0,0)">
                    <path d="M611.434,-471.335L604.98,-487.649L572.82,-487.649L566.715,-471.335L544.883,-471.335L579.75,-554.432L599.234,-554.432L633.736,-471.335L611.434,-471.335ZM589.138,-532.249L578.572,-503.729L599.465,-503.729L589.138,-532.249Z" style="fill-rule:nonzero;"/>
                </g>
                <g transform="matrix(0.995002,4.046119,-4.04604,0.995323,0,0)">
                    <path d="M535.418,-624.133L517.461,-657.114L510.653,-657.114L510.652,-624.133L490.933,-624.133L490.936,-707.229L522.627,-707.229C526.618,-707.229 530.511,-706.818 534.306,-705.997C538.101,-705.175 541.505,-703.787 544.518,-701.83C547.53,-699.874 549.937,-697.292 551.736,-694.084C553.536,-690.876 554.436,-686.886 554.435,-682.113C554.435,-676.479 552.909,-671.745 549.857,-667.911C546.805,-664.077 542.58,-661.339 537.18,-659.696L558.893,-624.133L535.418,-624.133ZM534.599,-681.761C534.599,-683.717 534.188,-685.301 533.367,-686.514C532.545,-687.727 531.489,-688.666 530.198,-689.331C528.906,-689.996 527.459,-690.446 525.855,-690.681C524.251,-690.915 522.705,-691.033 521.218,-691.033L510.537,-691.033L510.536,-671.667L520.044,-671.667C521.687,-671.667 523.369,-671.804 525.091,-672.078C526.812,-672.352 528.378,-672.841 529.786,-673.545C531.195,-674.249 532.349,-675.266 533.249,-676.596C534.149,-677.927 534.599,-679.648 534.599,-681.761Z" style="fill-rule:nonzero;"/>
                </g>
                <g transform="matrix(0.105671,4.165326,-4.165325,0.105714,0,0)">
                    <path d="M456.557,-795.272L456.556,-729.312L436.485,-729.312L436.485,-795.272L413.01,-795.272L413.01,-812.408L480.032,-812.408L480.032,-795.272L456.557,-795.272Z" style="fill-rule:nonzero;"/>
                </g>
                <g transform="matrix(2.704754,3.16945,-3.16945,2.704754,0,0)">
                    <path d="M569.909,272.916L588.941,272.916L588.941,305.124L625.907,305.124L625.907,272.916L644.939,272.916L644.939,359.292L625.907,359.292L625.907,321.96L588.941,321.96L588.941,359.292L569.909,359.292L569.909,272.916Z" style="fill-rule:nonzero;"/>
                </g>
                <g transform="matrix(3.436383,2.35635,-2.35635,3.436383,0,0)">
                    <path d="M589.814,432.507L605.552,432.507L643.128,518.883L621.656,518.883L614.214,500.583L580.664,500.583L573.466,518.883L552.482,518.883L589.814,432.507ZM597.134,457.639L586.642,484.479L607.748,484.479L597.134,457.639Z" style="fill-rule:nonzero;"/>
                </g>
                <g transform="matrix(3.946461,1.33662,-1.33662,3.946461,0,0)">
                    <path d="M501.988,590.092L527.852,590.092L564.574,650.116L564.818,650.116L564.818,590.092L583.85,590.092L583.85,676.468L558.962,676.468L521.264,614.98L521.02,614.98L521.02,676.468L501.988,676.468L501.988,590.092Z" style="fill-rule:nonzero;"/>
                </g>
                <g transform="matrix(4.16278,0.179917,-0.179917,4.16278,0,0)">
                    <path d="M403.842,730.769L432.39,730.769C439.303,730.769 445.871,731.541 452.093,733.087C458.315,734.632 463.744,737.133 468.38,740.59C473.016,744.046 476.696,748.54 479.421,754.071C482.146,759.601 483.508,766.311 483.508,774.201C483.508,781.195 482.186,787.356 479.543,792.684C476.9,798.011 473.341,802.484 468.868,806.104C464.395,809.723 459.23,812.468 453.374,814.339C447.518,816.209 441.377,817.145 434.952,817.145L403.842,817.145L403.842,730.769ZM422.874,799.577L432.756,799.577C437.148,799.577 441.235,799.129 445.017,798.235C448.799,797.34 452.073,795.856 454.838,793.782C457.603,791.708 459.779,788.983 461.365,785.608C462.951,782.232 463.744,778.105 463.744,773.225C463.744,768.995 462.951,765.315 461.365,762.184C459.779,759.052 457.644,756.47 454.96,754.437C452.276,752.403 449.124,750.878 445.505,749.862C441.886,748.845 438.083,748.337 434.098,748.337L422.874,748.337L422.874,799.577Z" style="fill-rule:nonzero;"/>
                </g>
                <g transform="matrix(4.076579,-0.86175,0.86175,4.076579,0,0)">
                    <path d="M292.562,828.195L324.77,828.195C328.511,828.195 332.273,828.459 336.055,828.988C339.837,829.517 343.233,830.574 346.242,832.16C349.251,833.746 351.691,835.962 353.562,838.809C355.433,841.656 356.368,845.438 356.368,850.155C356.368,855.035 355.006,859.081 352.281,862.294C349.556,865.507 345.957,867.804 341.484,869.187L341.484,869.431C344.331,869.838 346.913,870.631 349.231,871.81C351.549,872.989 353.542,874.494 355.209,876.324C356.876,878.154 358.157,880.289 359.052,882.729C359.947,885.169 360.394,887.772 360.394,890.537C360.394,895.092 359.418,898.894 357.466,901.944C355.514,904.994 352.993,907.454 349.902,909.325C346.811,911.196 343.334,912.538 339.471,913.351C335.608,914.164 331.765,914.571 327.942,914.571L292.562,914.571L292.562,828.195ZM311.594,862.721L325.38,862.721C326.844,862.721 328.288,862.558 329.711,862.233C331.134,861.908 332.415,861.379 333.554,860.647C334.693,859.915 335.608,858.939 336.299,857.719C336.99,856.499 337.336,855.035 337.336,853.327C337.336,851.538 336.95,850.053 336.177,848.874C335.404,847.695 334.408,846.78 333.188,846.129C331.968,845.478 330.585,845.011 329.04,844.726C327.495,844.441 325.99,844.299 324.526,844.299L311.594,844.299L311.594,862.721ZM311.594,898.467L328.674,898.467C330.138,898.467 331.622,898.304 333.127,897.979C334.632,897.654 335.994,897.084 337.214,896.271C338.434,895.458 339.43,894.4 340.203,893.099C340.976,891.798 341.362,890.212 341.362,888.341C341.362,886.308 340.854,884.661 339.837,883.4C338.82,882.139 337.539,881.184 335.994,880.533C334.449,879.882 332.781,879.435 330.992,879.191C329.203,878.947 327.535,878.825 325.99,878.825L311.594,878.825L311.594,898.467Z" style="fill-rule:nonzero;"/>
                </g>
                <g transform="matrix(3.750433,-1.815313,1.815313,3.750433,0,0)">
                    <path d="M184.757,891.447L200.495,891.447L238.071,977.823L216.599,977.823L209.157,959.523L175.607,959.523L168.409,977.823L147.425,977.823L184.757,891.447ZM192.077,916.579L181.585,943.419L202.691,943.419L192.077,916.579Z" style="fill-rule:nonzero;"/>
                </g>
                <g transform="matrix(3.209434,-2.657188,2.657188,3.209434,0,0)">
                    <path d="M22.478,920.744L41.51,920.744L41.51,989.552L76.768,989.552L76.768,1007.12L22.478,1007.12L22.478,920.744Z" style="fill-rule:nonzero;"/>
                </g>
                <g transform="matrix(2.621106,-3.238968,3.238968,2.621106,0,0)">
                    <path d="M-97.868,918.633L-78.836,918.633L-78.836,987.441L-43.578,987.441L-43.578,1005.009L-97.868,1005.009L-97.868,918.633Z" style="fill-rule:nonzero;"/>
                </g>
            </g>
        </g>
        <g>
            <g transform="matrix(4.166667,0,0,4.166667,0,873.895833)">
                <path d="M725.871,328.864C725.87,328.758 725.884,328.644 725.913,328.521L725.871,328.864" style="fill:none;fill-rule:nonzero;stroke:black;stroke-width:3.28px;stroke-linejoin:miter;stroke-miterlimit:1;"/>
            </g>
            <g transform="matrix(4.166667,0,0,4.166667,0,580.925)">
                <path d="M761.493,364.771C759.023,360.999 757.451,359.114 756.779,359.114C756.779,364.334 757.023,367.491 757.506,368.584" style="fill:none;fill-rule:nonzero;stroke:black;stroke-width:3.28px;stroke-linejoin:miter;stroke-miterlimit:1;"/>
            </g>
            <g transform="matrix(4.166667,0,0,4.166667,0,583.8375)">
                <path d="M771.743,370.921C769.703,370.302 768.232,369.919 767.332,369.771C767.332,364.032 764.983,359.468 760.283,356.078C760.283,360.342 761.396,364.879 763.622,369.69" style="fill:none;fill-rule:nonzero;stroke:black;stroke-width:3.28px;stroke-linejoin:miter;stroke-miterlimit:1;"/>
            </g>
            <g transform="matrix(4.166667,0,0,4.166667,0,730.204167)">
                <path d="M745.889,352.395C748.879,350.143 751.633,348.783 754.15,348.312C758.794,347.919 761.792,345.728 763.146,341.74C764.039,341.179 764.785,340.762 765.386,340.49C767.437,339.56 769.564,339.476 771.767,340.235C773.971,340.995 776.826,342.969 780.334,346.155" style="fill:none;fill-rule:nonzero;stroke:black;stroke-width:3.28px;stroke-linejoin:miter;stroke-miterlimit:1;"/>
            </g>
            <g transform="matrix(4.166667,0,0,4.166667,0,722.625)">
                <path d="M754.15,350.131C758.794,349.738 761.792,347.547 763.146,343.559C758.182,344.704 755.183,346.895 754.15,350.131" style="fill:none;fill-rule:nonzero;stroke:black;stroke-width:3.28px;stroke-linejoin:miter;stroke-miterlimit:1;"/>
            </g>
            <g transform="matrix(4.166667,0,0,4.166667,0,890.779167)">
                <path d="M726.456,325.937C728.298,325.712 729.547,325.7 730.2,325.903C730.855,326.105 731.393,326.206 731.816,326.206C732.239,326.206 732.355,326.373 732.161,326.706C731.967,327.04 731.544,327.277 730.891,327.42C730.239,327.562 729.306,327.633 728.095,327.633L727.73,327.005L727.3,326.577L726.933,326.367L726.456,325.937" style="fill:none;fill-rule:nonzero;stroke:black;stroke-width:3.28px;stroke-linejoin:miter;stroke-miterlimit:1;"/>
            </g>
            <g transform="matrix(4.166667,0,0,4.166667,0,914.729167)">
                <path d="M769.641,318.892C764.021,322.97 760.44,325.133 758.898,325.378C757.355,325.624 755.687,325.465 753.894,324.901C752.102,324.336 750.416,324.086 748.84,324.149C747.262,324.212 745.465,324.458 743.445,324.888C741.425,325.319 739.715,326.087 738.313,327.194C736.911,328.301 735.929,328.693 735.366,328.369C734.802,328.045 734.52,327.636 734.52,327.14C734.52,326.643 734.019,326.394 733.015,326.394C732.012,326.394 731.401,326.285 731.181,326.066C730.961,325.848 730.959,325.181 731.173,324.068" style="fill:none;fill-rule:nonzero;stroke:black;stroke-width:3.28px;stroke-linejoin:miter;stroke-miterlimit:1;"/>
            </g>
            <g transform="matrix(-2.444906,-3.373951,-3.373951,2.444906,6050.417766,3958.580278)">
                <path d="M740.407,329.042C744.588,326.01 749.125,326.009 754.019,329.042" style="fill:none;fill-rule:nonzero;stroke:black;stroke-width:3.27px;stroke-linejoin:miter;stroke-miterlimit:1;"/>
            </g>
            <g transform="matrix(4.166667,0,0,4.166667,0,889.679167)">
                <path d="M733.028,329.024L735.222,327.589L739.92,323.912C740.421,323.596 740.826,323.517 741.136,323.675C741.447,323.833 741.357,324.155 740.869,324.641C740.38,325.128 739.437,325.699 738.043,326.354C736.647,327.01 734.358,328.252 731.173,330.08L733.028,329.024" style="fill:none;fill-rule:nonzero;stroke:black;stroke-width:3.28px;stroke-linejoin:miter;stroke-miterlimit:1;"/>
            </g>
            <g transform="matrix(4.166667,0,0,4.166667,0,741.466667)">
                <path d="M744.586,344.541C745.285,344.148 746.387,343.518 747.892,342.649C749.395,341.781 750.718,340.812 751.862,339.744C753.005,338.675 754.084,337.193 755.098,335.3C756.439,332.845 758.874,330.732 762.405,328.963L762.24,328.521C758.836,329.297 756.339,330.382 754.751,331.776C753.163,333.17 751.633,334.824 750.159,336.737C748.687,338.65 747.541,340.014 746.722,340.829C745.903,341.644 744.1,342.961 741.314,344.781C738.527,346.602 735.916,348.446 733.482,350.316C731.047,352.185 729.091,354.156 727.612,356.227C726.134,358.299 725.553,359.773 725.871,360.647C725.867,359.892 726.615,358.681 728.111,357.013C729.609,355.345 731.592,353.802 734.058,352.386C736.526,350.968 738.806,349.321 740.898,347.445C742.467,346.082 743.697,345.115 744.586,344.541" style="fill:none;fill-rule:nonzero;stroke:black;stroke-width:3.28px;stroke-linejoin:miter;stroke-miterlimit:1;"/>
            </g>
            <g transform="matrix(4.166667,0,0,4.166667,0,783.316667)">
                <path d="M780.334,333.408C774.525,333.598 769.828,334.301 766.24,335.513C762.651,336.727 757.601,340.129 751.091,345.716" style="fill:none;fill-rule:nonzero;stroke:black;stroke-width:3.28px;stroke-linejoin:miter;stroke-miterlimit:1;"/>
            </g>
            <g transform="matrix(0.258273,4.158654,4.158654,-0.258273,1670.784691,-801.184459)">
                <path d="M756.302,315.661C761.787,317.387 766.966,317.387 771.838,315.661" style="fill:none;fill-rule:nonzero;stroke:black;stroke-width:3.28px;stroke-linejoin:miter;stroke-miterlimit:1;"/>
            </g>
            <g transform="matrix(4.166667,0,0,4.166667,0,896.8)">
                <path d="M725.871,323.367C726.26,324.117 726.668,324.669 727.093,325.026C727.517,325.382 727.791,325.665 727.912,325.874C728.034,326.083 728.204,326.486 728.424,327.081C728.644,327.678 729.031,328.079 729.583,328.286C730.136,328.493 730.666,328.521 731.173,328.371" style="fill:none;fill-rule:nonzero;stroke:black;stroke-width:3.28px;stroke-linejoin:miter;stroke-miterlimit:1;"/>
            </g>
            <g transform="matrix(-0.656067,4.114692,4.114692,0.656067,2424.6084,-1307.855881)">
                <path d="M779.497,311.377C776.704,315.907 775.324,321.911 775.355,329.388C775.386,336.866 776.766,343.147 779.497,348.231C779.095,340.389 779.704,334.005 781.327,329.081C778.89,351.651 789.268,366.471 812.459,373.542" style="fill:none;fill-rule:nonzero;stroke:black;stroke-width:3.28px;stroke-linejoin:miter;stroke-miterlimit:1;"/>
            </g>
            <g transform="matrix(4.166667,0,0,4.166667,0,983.654167)">
                <path d="M822.862,311.178C820.175,302.216 815.08,296.444 807.577,293.862C821.246,305.583 823.375,320.022 813.96,337.181" style="fill:none;fill-rule:nonzero;stroke:black;stroke-width:3.28px;stroke-linejoin:miter;stroke-miterlimit:1;"/>
            </g>
            <g transform="matrix(4.166667,0,0,4.166667,0,1119.3)">
                <path d="M813.96,304.626C815.381,294.379 813.94,286.409 809.638,280.72C814.52,303.054 803.215,315.403 775.723,317.768" style="fill:none;fill-rule:nonzero;stroke:black;stroke-width:3.28px;stroke-linejoin:miter;stroke-miterlimit:1;"/>
            </g>
            <g transform="matrix(4.166667,0,0,4.166667,0,1192.266667)">
                <path d="M730.497,280.72C740.623,290.355 751.993,295.287 764.607,295.514C777.22,295.742 787.359,291.111 795.024,281.619C791.178,290.503 784.745,296.716 775.723,300.256" style="fill:none;fill-rule:nonzero;stroke:black;stroke-width:3.28px;stroke-linejoin:miter;stroke-miterlimit:1;"/>
            </g>
            <g transform="matrix(4.166667,0,0,4.166667,0,958.6625)">
                <path d="M730.497,336.785C749.121,337.171 760.25,334.384 763.885,328.424C779.716,316.951 779.069,322.715 761.944,345.716C794.677,326.105 799.348,312.575 775.962,305.124C793.776,300.169 801.463,308.022 799.025,328.685C803.429,315.662 803.464,306.237 799.13,300.411C794.795,294.585 788.529,291.556 780.334,291.325" style="fill:none;fill-rule:nonzero;stroke:black;stroke-width:3.28px;stroke-linejoin:miter;stroke-miterlimit:1;"/>
            </g>
        </g>
        <g>
            <g transform="matrix(4.166667,0,0,4.166667,0,873.895833)">
                <path d="M131.822,328.864C131.823,328.758 131.809,328.644 131.779,328.521L131.822,328.864" style="fill:none;fill-rule:nonzero;stroke:black;stroke-width:3.28px;stroke-linejoin:miter;stroke-miterlimit:1;"/>
            </g>
            <g transform="matrix(4.166667,0,0,4.166667,0,580.925)">
                <path d="M96.199,364.771C98.67,360.999 100.241,359.114 100.913,359.114C100.913,364.334 100.67,367.491 100.186,368.584" style="fill:none;fill-rule:nonzero;stroke:black;stroke-width:3.28px;stroke-linejoin:miter;stroke-miterlimit:1;"/>
            </g>
            <g transform="matrix(4.166667,0,0,4.166667,0,583.8375)">
                <path d="M85.95,370.921C87.99,370.302 89.46,369.919 90.361,369.771C90.361,364.032 92.71,359.468 97.409,356.078C97.409,360.342 96.296,364.879 94.07,369.69" style="fill:none;fill-rule:nonzero;stroke:black;stroke-width:3.28px;stroke-linejoin:miter;stroke-miterlimit:1;"/>
            </g>
            <g transform="matrix(4.166667,0,0,4.166667,0,730.204167)">
                <path d="M111.804,352.395C108.813,350.143 106.06,348.783 103.543,348.312C98.899,347.919 95.9,345.728 94.546,341.74C93.653,341.179 92.907,340.762 92.306,340.49C90.255,339.56 88.129,339.476 85.925,340.235C83.721,340.995 80.866,342.969 77.359,346.155" style="fill:none;fill-rule:nonzero;stroke:black;stroke-width:3.28px;stroke-linejoin:miter;stroke-miterlimit:1;"/>
            </g>
            <g transform="matrix(4.166667,0,0,4.166667,0,722.625)">
                <path d="M103.543,350.131C98.899,349.738 95.9,347.547 94.546,343.559C99.51,344.704 102.509,346.895 103.543,350.131" style="fill:none;fill-rule:nonzero;stroke:black;stroke-width:3.28px;stroke-linejoin:miter;stroke-miterlimit:1;"/>
            </g>
            <g transform="matrix(4.166667,0,0,4.166667,0,890.779167)">
                <path d="M131.237,325.937C129.394,325.712 128.146,325.7 127.492,325.903C126.838,326.105 126.3,326.206 125.877,326.206C125.453,326.206 125.338,326.373 125.532,326.706C125.726,327.04 126.149,327.277 126.801,327.42C127.454,327.562 128.387,327.633 129.598,327.633L129.963,327.005L130.393,326.577L130.76,326.367L131.237,325.937" style="fill:none;fill-rule:nonzero;stroke:black;stroke-width:3.28px;stroke-linejoin:miter;stroke-miterlimit:1;"/>
            </g>
            <g transform="matrix(4.166667,0,0,4.166667,0,914.729167)">
                <path d="M88.052,318.892C93.672,322.97 97.253,325.133 98.795,325.378C100.337,325.624 102.005,325.465 103.799,324.901C105.591,324.336 107.277,324.086 108.853,324.149C110.43,324.212 112.228,324.458 114.247,324.888C116.267,325.319 117.978,326.087 119.38,327.194C120.781,328.301 121.763,328.693 122.327,328.369C122.891,328.045 123.172,327.636 123.172,327.14C123.172,326.643 123.674,326.394 124.677,326.394C125.68,326.394 126.292,326.285 126.511,326.066C126.731,325.848 126.733,325.181 126.519,324.068" style="fill:none;fill-rule:nonzero;stroke:black;stroke-width:3.28px;stroke-linejoin:miter;stroke-miterlimit:1;"/>
            </g>
            <g transform="matrix(2.444705,-3.374097,-3.374097,-2.444705,1300.457664,3419.172495)">
                <path d="M103.675,329.04C107.855,332.072 112.393,332.073 117.286,329.04" style="fill:none;fill-rule:nonzero;stroke:black;stroke-width:3.28px;stroke-linejoin:miter;stroke-miterlimit:1;"/>
            </g>
            <g transform="matrix(4.166667,0,0,4.166667,0,889.679167)">
                <path d="M124.664,329.024L122.471,327.589L117.772,323.912C117.272,323.596 116.866,323.517 116.556,323.675C116.245,323.833 116.335,324.155 116.824,324.641C117.313,325.128 118.255,325.699 119.65,326.354C121.046,327.01 123.335,328.252 126.519,330.08L124.664,329.024" style="fill:none;fill-rule:nonzero;stroke:black;stroke-width:3.28px;stroke-linejoin:miter;stroke-miterlimit:1;"/>
            </g>
            <g transform="matrix(4.166667,0,0,4.166667,0,741.466667)">
                <path d="M113.106,344.541C112.407,344.148 111.306,343.518 109.801,342.649C108.297,341.781 106.974,340.812 105.831,339.744C104.687,338.675 103.608,337.193 102.595,335.3C101.253,332.845 98.818,330.732 95.287,328.963L95.452,328.521C98.857,329.297 101.354,330.382 102.942,331.776C104.529,333.17 106.06,334.824 107.533,336.737C109.006,338.65 110.152,340.014 110.97,340.829C111.79,341.644 113.592,342.961 116.379,344.781C119.166,346.602 121.776,348.446 124.21,350.316C126.646,352.185 128.602,354.156 130.081,356.227C131.558,358.299 132.14,359.773 131.822,360.647C131.825,359.892 131.078,358.681 129.581,357.013C128.084,355.345 126.101,353.802 123.634,352.386C121.166,350.968 118.886,349.321 116.795,347.445C115.226,346.082 113.996,345.115 113.106,344.541" style="fill:none;fill-rule:nonzero;stroke:black;stroke-width:3.28px;stroke-linejoin:miter;stroke-miterlimit:1;"/>
            </g>
            <g transform="matrix(4.166667,0,0,4.166667,0,783.316667)">
                <path d="M77.359,333.408C83.167,333.598 87.865,334.301 91.453,335.513C95.042,336.727 100.091,340.129 106.601,345.716" style="fill:none;fill-rule:nonzero;stroke:black;stroke-width:3.28px;stroke-linejoin:miter;stroke-miterlimit:1;"/>
            </g>
            <g transform="matrix(-0.25838,4.158648,4.158648,0.25838,-901.58148,1823.887328)">
                <path d="M85.767,317.079C91.251,315.352 96.43,315.353 101.303,317.079" style="fill:none;fill-rule:nonzero;stroke:black;stroke-width:3.28px;stroke-linejoin:miter;stroke-miterlimit:1;"/>
            </g>
            <g transform="matrix(4.166667,0,0,4.166667,0,896.8)">
                <path d="M131.822,323.367C131.432,324.117 131.024,324.669 130.6,325.026C130.175,325.382 129.902,325.665 129.78,325.874C129.659,326.083 129.488,326.486 129.268,327.081C129.048,327.678 128.661,328.079 128.109,328.286C127.557,328.493 127.027,328.521 126.519,328.371" style="fill:none;fill-rule:nonzero;stroke:black;stroke-width:3.28px;stroke-linejoin:miter;stroke-miterlimit:1;"/>
            </g>
            <g transform="matrix(-0.656063,-4.114692,-4.114692,0.656063,1711.814722,2221.286135)">
                <path d="M78.196,311.377C80.988,315.907 82.369,321.911 82.338,329.389C82.307,336.866 80.926,343.147 78.196,348.231C78.598,340.389 77.988,334.004 76.366,329.081C78.803,351.652 68.425,366.472 45.234,373.542" style="fill:none;fill-rule:nonzero;stroke:black;stroke-width:3.28px;stroke-linejoin:miter;stroke-miterlimit:1;"/>
            </g>
            <g transform="matrix(4.166667,0,0,4.166667,0,983.654167)">
                <path d="M34.831,311.178C37.517,302.216 42.612,296.444 50.116,293.862C36.446,305.583 34.317,320.022 43.732,337.181" style="fill:none;fill-rule:nonzero;stroke:black;stroke-width:3.28px;stroke-linejoin:miter;stroke-miterlimit:1;"/>
            </g>
            <g transform="matrix(4.166667,0,0,4.166667,0,1119.3)">
                <path d="M43.732,304.626C42.312,294.379 43.752,286.409 48.054,280.72C43.172,303.054 54.478,315.403 81.97,317.768" style="fill:none;fill-rule:nonzero;stroke:black;stroke-width:3.28px;stroke-linejoin:miter;stroke-miterlimit:1;"/>
            </g>
            <g transform="matrix(4.166667,0,0,4.166667,0,1192.266667)">
                <path d="M127.195,280.72C117.07,290.355 105.7,295.287 93.086,295.514C80.472,295.742 70.334,291.111 62.669,281.619C66.514,290.503 72.948,296.716 81.97,300.256" style="fill:none;fill-rule:nonzero;stroke:black;stroke-width:3.28px;stroke-linejoin:miter;stroke-miterlimit:1;"/>
            </g>
            <g transform="matrix(4.166667,0,0,4.166667,0,958.6625)">
                <path d="M127.195,336.785C108.571,337.171 97.442,334.384 93.807,328.424C77.976,316.951 78.624,322.715 95.748,345.716C63.016,326.105 58.344,312.575 81.73,305.124C63.916,300.169 56.229,308.022 58.668,328.685C54.264,315.662 54.229,306.237 58.563,300.411C62.898,294.585 69.163,291.556 77.359,291.325" style="fill:none;fill-rule:nonzero;stroke:black;stroke-width:3.28px;stroke-linejoin:miter;stroke-miterlimit:1;"/>
            </g>
        </g>
    </g>
</svg>
